<svg xmlns="http://www.w3.org/2000/svg" xmlns:xlink="http://www.w3.org/1999/xlink" fill="none" height="20" viewBox="0 0 24 20" width="24"><clipPath id="a"><path d="m0 .109863h24v19.7805h-24z"/></clipPath><g clip-path="url(#a)"><path d="m21.478 5.0827c.0145.21041.0145.42082.0145.63317 0 6.47033-4.9162 13.93263-13.90551 13.93263v-.0039c-2.65548.0039-5.2558-.7582-7.4912869-2.1952.3861289.0465.7741939.0698 1.1632269.0708 2.20064.0019 4.33839-.7379 6.06968-2.1002-2.09129-.0398-3.92517-1.406-4.56581-3.4005.73258.1415 1.48742.1124 2.20645-.0844-2.28-.4616-3.92032-2.46869-3.92032-4.79969 0-.02133 0-.04169 0-.06206.67935.37913 1.44.58954 2.21806.61281-2.14742-1.43796-2.809351-4.30032-1.51258-6.53823 2.48129 3.05919 6.14226 4.91894 10.07229 5.11578-.3939-1.70074.1442-3.48292 1.4138-4.67848 1.9684-1.853939 5.0642-1.758915 6.9146.21235 1.0945-.21623 2.1435-.61863 3.1035-1.188771-.3648 1.133501-1.1284 2.096351-2.1484 2.708191.9687-.11442 1.9152-.37428 2.8065-.77086-.6562.98514-1.4826 1.84327-2.4387 2.53656z" fill="#000"/></g></svg>