<svg xmlns="http://www.w3.org/2000/svg" xmlns:xlink="http://www.w3.org/1999/xlink" fill="none" height="24" viewBox="0 0 24 24" width="24"><clipPath id="a"><path d="m0 0h24v24h-24z"/></clipPath><g clip-path="url(#a)"><path d="m7.03007.0839251c-1.2768.0602399-2.14872.2639999-2.91096.5635199-.78888.30744-1.45752.720005-2.1228 1.387685s-1.074961 1.3368-1.380241 2.12688c-.29544.76392-.4956 1.63656-.5520001 2.91408-.05639995 1.27752-.06887996 1.68816-.06263996 4.94691.00624 3.2587.02063996 3.6672.08255996 4.9473.0609601 1.2766.2640001 2.1483.5635201 2.9107.30792.7889.720001 1.4573 1.387921 2.1228.66792.6656 1.33656 1.0743 2.12856 1.38.7632.295 1.63608.4961 2.91336.552 1.27728.056 1.6884.0689 4.94615.0627 3.2578-.0063 3.6679-.0207 4.9478-.0814 1.28-.0607 2.1471-.2652 2.9098-.5633.7889-.3086 1.4578-.72 2.1228-1.3881.665-.6682 1.0745-1.3378 1.3795-2.1283.2957-.7632.4966-1.6361.552-2.9124.0559-1.2809.0691-1.6899.0629-4.9481-.0062-3.25825-.0209-3.66673-.0816-4.94641s-.264-2.14872-.5633-2.91168c-.3084-.78888-.72-1.4568-1.3877-2.1228-.6676-.666-1.3377-1.075205-2.128-1.379525-.7637-.29544-1.6361-.4968-2.9134-.5519999-1.2773-.05519996-1.6884-.06935997-4.9474-.06311997-3.25891.00624-3.66691.02015997-4.94683.08255997zm.14016 21.6930749c-1.17-.0508-1.80528-.2452-2.22864-.408-.56064-.216-.96-.4771-1.38192-.8949-.42192-.4179-.68112-.8187-.9-1.3781-.1644-.4234-.3624-1.0579-.41712-2.2279-.05952-1.2646-.072-1.6443-.07896-4.848-.00696-3.20377.00528-3.58297.06072-4.84801.04992-1.16904.24552-1.80504.408-2.22816.216-.56136.47616-.96.89496-1.38168s.8184-.68136 1.37832-.90024c.42288-.16512 1.05744-.36144 2.22696-.41712 1.26552-.06 1.64472-.072 4.84795-.07896 3.2033-.00696 3.5835.00504 4.8495.06072 1.169.05088 1.8053.24456 2.2279.408.5609.216.96.47544 1.3817.89496s.6816.81768.9005 1.3788c.1653.42168.3616 1.056.4168 2.22624.0603 1.26552.074 1.64496.0797 4.84795.0058 3.2031-.0055 3.5835-.0609 4.848-.0512 1.17-.2451 1.8056-.408 2.2294-.216.5604-.4764.96-.8955 1.3814-.419.4215-.8181.6812-1.3783.9-.4224.1649-1.0577.3617-2.2262.4174-1.2656.0595-1.6448.072-4.8492.079-3.20451.0069-3.58251-.006-4.84803-.0608m9.78243-16.19059c.0004.28482.0854.56311.244.79966.1587.23655.3839.42074.6472.52928.2634.10854.553.13654.8322.08048.2793-.05607.5356-.19369.7367-.39546.201-.20177.3377-.45863.3927-.73809.0551-.27945.026-.56895-.0835-.83189-.1095-.26293-.2945-.48749-.5317-.64527-.2371-.15777-.5157-.24168-.8005-.24111-.3818.00076-.7477.15314-1.0172.42363s-.4206.63694-.4199 1.01877zm-11.11443 6.42549c.00672 3.4032 2.77056 6.1558 6.17303 6.1493 3.4025-.0065 6.157-2.7701 6.1505-6.1733-.0065-3.40317-2.7711-6.15645-6.174-6.14973-3.40297.00672-6.15601 2.77104-6.14953 6.17373zm2.16144-.0043c-.00157-.7911.2315-1.565.66974-2.22365.43823-.65868 1.06194-1.17261 1.79225-1.47681.7303-.3042 1.5344-.38501 2.3107-.2322.7762.1528 1.4897.53236 2.0503 1.09067.5605.55832.9429 1.27029 1.0987 2.04589.1559.7757.0783 1.5801-.223 2.3116-.3013.7316-.8128 1.3573-1.4697 1.7981-.6569.4409-1.4299.677-2.221.6786-.5253.0011-1.0457-.1013-1.5314-.3014-.48577-.2-.92735-.4938-1.29954-.8645s-.6677-.8111-.86966-1.2961c-.20196-.4849-.30642-1.0049-.30739-1.5302z" fill="#000"/></g></svg>